<svg width="27" height="34" viewBox="0 0 27 34" fill="none" xmlns="http://www.w3.org/2000/svg">
<g filter="url(#filter0_d_125_185)">
<path d="M18.3913 3.0625V8.94745C18.3913 9.53583 19.0672 9.89003 19.608 9.65825C21.1612 8.99258 22.8757 10.1415 22.875 11.8125C22.8746 12.7215 22.3429 13.3849 21.4545 13.7656C20.0733 14.3575 18.3134 17.6059 17.679 19.0163C17.2905 19.8882 16.4349 20.4056 15.5381 20.4062L7.16274 20.4062C6.58599 20.4062 6.09356 19.9865 6.00537 19.4166C5.65137 17.1296 4.12632 16.4009 4.13452 13.375C4.13486 13.242 4.125 12.7278 4.125 12.5937C4.125 10.7678 4.7137 9.46705 5.9873 9.08748C6.91398 8.81131 7.92756 8.35256 8.84753 8.05479C9.10616 7.97107 9.38297 7.92947 9.66113 7.94188C10.2605 7.96862 11.0272 7.78878 11.576 7.54631C12.5537 7.11432 14.1114 6.16248 14.1114 5.09354V3.0625C14.1114 1.8833 15.0978 0.875 16.2514 0.875C17.3882 0.875 18.3913 1.91748 18.3913 3.0625ZM17.4062 22.3594V24.7031C17.4062 25.3503 16.8816 25.875 16.2344 25.875L6.85937 25.875C6.21216 25.875 5.6875 25.3503 5.6875 24.7031V22.3594C5.6875 21.7122 6.21216 21.1875 6.85937 21.1875L16.2344 21.1875C16.8816 21.1875 17.4062 21.7122 17.4062 22.3594ZM7.05469 23.5312C7.05469 24.0706 7.49189 24.5078 8.03125 24.5078C8.57061 24.5078 9.00781 24.0706 9.00781 23.5312C9.00781 22.9919 8.57061 22.5547 8.03125 22.5547C7.49189 22.5547 7.05469 22.9919 7.05469 23.5312Z" fill="#F7F7F7"/>
</g>
<defs>
<filter id="filter0_d_125_185" x="0.125" y="0.875" width="26.75" height="33" filterUnits="userSpaceOnUse" color-interpolation-filters="sRGB">
<feFlood flood-opacity="0" result="BackgroundImageFix"/>
<feColorMatrix in="SourceAlpha" type="matrix" values="0 0 0 0 0 0 0 0 0 0 0 0 0 0 0 0 0 0 127 0" result="hardAlpha"/>
<feOffset dy="4"/>
<feGaussianBlur stdDeviation="2"/>
<feComposite in2="hardAlpha" operator="out"/>
<feColorMatrix type="matrix" values="0 0 0 0 0 0 0 0 0 0 0 0 0 0 0 0 0 0 0.25 0"/>
<feBlend mode="normal" in2="BackgroundImageFix" result="effect1_dropShadow_125_185"/>
<feBlend mode="normal" in="SourceGraphic" in2="effect1_dropShadow_125_185" result="shape"/>
</filter>
</defs>
</svg>
